#!OML:ASF H:\ManfredETheater\Project 1\Capture day 1\Session 1\subject.ASF
:FULLY-SPECIFIED
:DEGREES
120
root 0.669041 22.2178 -5.41972 -193.123 -23.098 -174.296
lowerback 16.5447 2.64761 3.33828
upperback 1.49247 4.05373 2.15529
thorax -7.59261 1.78521 -0.485894
lowerneck -19.2108 -2.13741 -3.67842
upperneck 14.4778 -1.9968 0.441719
head 7.65667 -1.12436 0.501263
rclavicle 7.60792e-014 -4.24654e-014
rhumerus -47.5538 27.7298 -48.5629
rradius 110.292
rwrist -3.14399
rhand -19.3991 6.56705
rfingers 7.12502
rthumb 6.9199 -23.2998
lclavicle 7.60792e-014 -4.24654e-014
lhumerus -63.2228 -15.3592 27.4472
lradius 31.0184
lwrist 2.30636
lhand -28.3554 4.90162
lfingers 7.12502
lthumb -1.72916 34.8744
rfemur -10.0656 -14.5965 18.0116
rtibia 93.297
rfoot 4.80655 -5.8865
rtoes -10.2162
lfemur -42.8485 -6.32182 -7.2053
ltibia 31.4659
lfoot 9.44088 -0.162452
ltoes -15.9407
121
root 0.462977 22.0365 -5.81893 -193.265 -22.9288 -174.475
lowerback 16.4484 2.65438 3.17071
upperback 1.51731 4.03045 2.215
thorax -7.5295 1.78162 -0.318023
lowerneck -19.1019 -2.06504 -3.71862
upperneck 14.583 -1.88498 0.386302
head 7.67086 -1.08151 0.503318
rclavicle -7.04302e-014 -1.46262e-014
rhumerus -48.9225 27.7191 -47.2923
rradius 109.966
rwrist -3.23736
rhand -19.1936 6.48631
rfingers 7.12502
rthumb 7.11831 -23.374
lclavicle -7.04302e-014 -1.46262e-014
lhumerus -64.3191 -15.9578 28.5471
lradius 31.1773
lwrist 1.95534
lhand -27.9155 4.37601
lfingers 7.12502
lthumb -1.30433 34.3518
rfemur -11.4558 -14.8971 17.819
rtibia 92.947
rfoot 3.33308 -5.56069
rtoes -12.1481
lfemur -41.326 -6.99806 -7.24713
ltibia 30.93
lfoot 10.1892 0.348451
ltoes -16.7878
122
root 0.256428 21.8417 -6.21845 -193.406 -22.7599 -174.657
lowerback 16.3541 2.65237 3.00556
upperback 1.54369 3.99636 2.27989
thorax -7.46607 1.77245 -0.143755
lowerneck -19.0003 -1.98033 -3.75293
upperneck 14.6948 -1.75713 0.326913
head 7.68808 -1.03134 0.504913
rclavicle 4.90229e-014 1.27471e-014
rhumerus -50.2476 27.768 -46.0588
rradius 109.61
rwrist -3.28988
rhand -18.9923 6.48312
rfingers 7.12502
rthumb 7.31254 -23.3705
lclavicle 4.90229e-014 1.27471e-014
lhumerus -65.4595 -16.501 29.7339
lradius 31.3871
lwrist 1.60228
lhand -27.473 3.80506
lfingers 7.12502
lthumb -0.87697 33.783
rfemur -12.8502 -15.1707 17.6815
rtibia 92.3709
rfoot 1.81809 -5.27779
rtoes -14.0987
lfemur -39.8171 -7.67504 -7.32611
ltibia 30.4536
lfoot 10.9584 0.880725
ltoes -17.6399
123
root 0.049659 21.6335 -6.61841 -193.545 -22.5939 -174.851
lowerback 16.2626 2.6404 2.8302
upperback 1.57274 3.94745 2.3475
thorax -7.40221 1.75617 0.0422085
lowerneck -18.9046 -1.88109 -3.77817
upperneck 14.8091 -1.61092 0.262757
head 7.70664 -0.972612 0.505577
rclavicle -3.76604e-015 -3.72224e-014
rhumerus -51.5242 27.8822 -44.8758
rradius 109.232
rwrist -3.29569
rhand -18.7968 6.56017
rfingers 7.12502
rthumb 7.50129 -23.2868
lclavicle -3.76604e-015 -3.72224e-014
lhumerus -66.6491 -16.9793 31.0004
lradius 31.6564
lwrist 1.27367
lhand -27.0376 3.17841
lfingers 7.12502
lthumb -0.456434 33.1577
rfemur -14.246 -15.421 17.5864
rtibia 91.5809
rfoot 0.285398 -5.03626
rtoes -16.0685
lfemur -38.3306 -8.33424 -7.46197
ltibia 30.0603
lfoot 11.7582 1.41957
ltoes -18.375
124
root -0.156622 21.4116 -7.01901 -193.7 -22.4088 -175.022
lowerback 16.1853 2.62223 2.67197
upperback 1.60435 3.89402 2.4267
thorax -7.34277 1.73655 0.23125
lowerneck -18.8247 -1.76855 -3.78841
upperneck 14.9379 -1.44841 0.189907
head 7.73226 -0.906504 0.502696
rclavicle -2.70844e-015 1.39149e-015
rhumerus -52.7619 28.0559 -43.7616
rradius 108.839
rwrist -3.25925
rhand -18.596 6.73533
rfingers 7.12502
rthumb 7.69506 -23.1047
lclavicle -2.70844e-015 1.39149e-015
lhumerus -67.8778 -17.3821 32.3306
lradius 31.9876
lwrist 0.970258
lhand -26.6208 2.50094
lfingers 7.12502
lthumb -0.0538686 32.4807
rfemur -15.6401 -15.6377 17.5826
rtibia 90.5861
rfoot -1.23228 -4.85115
rtoes -18.0065
lfemur -36.8722 -8.93795 -7.62235
ltibia 29.7804
lfoot 12.5968 1.94662
ltoes -18.8967
125
root -0.362061 21.1759 -7.42042 -193.869 -22.2044 -175.168
lowerback 16.1229 2.59917 2.53347
upperback 1.63584 3.83819 2.51321
thorax -7.29053 1.71458 0.416816
lowerneck -18.7574 -1.64496 -3.77792
upperneck 15.0805 -1.27535 0.114456
head 7.76429 -0.834798 0.496721
rclavicle 1.98163e-014 -1.8487e-014
rhumerus -53.9735 28.2798 -42.7411
rradius 108.432
rwrist -3.19132
rhand -18.399 6.98228
rfingers 7.12502
rthumb 7.88522 -22.8507
lclavicle 1.98163e-014 -1.8487e-014
lhumerus -69.1295 -17.7118 33.7102
lradius 32.3806
lwrist 0.693196
lhand -26.2258 1.78493
lfingers 7.12502
lthumb 0.327675 31.7644
rfemur -17.0337 -15.819 17.6733
rtibia 89.397
rfoot -2.71272 -4.72214
rtoes -19.8533
lfemur -35.4555 -9.46952 -7.80854
ltibia 29.6464
lfoot 13.4747 2.45731
ltoes -19.0904
